<svg width="47" height="46" viewBox="0 0 47 46" fill="none" xmlns="http://www.w3.org/2000/svg">
<path d="M15.5391 37.3061H23.6165L21.4058 29.0586H18.0048L15.5391 37.3061Z" fill="#A6EACA"/>
<path d="M26.4226 29.3134H3.89085C2.27537 29.3134 1 28.0381 1 26.4226V3.89088C1 2.2754 2.27537 1 3.89085 1H37.3058C38.9213 1 40.1967 2.2754 40.1967 3.89088V12.3084" fill="white"/>
<path d="M26.4226 29.3134H3.89085C2.27537 29.3134 1 28.0381 1 26.4226V3.89088C1 2.2754 2.27537 1 3.89085 1H37.3058C38.9213 1 40.1967 2.2754 40.1967 3.89088V12.3084" stroke="#404145" stroke-width="1.5" stroke-miterlimit="10" stroke-linecap="round" stroke-linejoin="round"/>
<path d="M18.0051 6.10156H6.10156V16.3046H18.0051V6.10156Z" stroke="#404145" stroke-width="1.5" stroke-miterlimit="10" stroke-linejoin="round"/>
<path d="M35.009 6.10156H23.1055V11.2031H35.009V6.10156Z" stroke="#404145" stroke-width="1.5" stroke-miterlimit="10" stroke-linejoin="round"/>
<path d="M12.0547 6.10156V16.3046" stroke="#404145" stroke-width="1.5" stroke-miterlimit="10" stroke-linejoin="round"/>
<path d="M27.3594 6.10156V11.2031" stroke="#404145" stroke-width="1.5" stroke-miterlimit="10" stroke-linejoin="round"/>
<path d="M18.0065 11.2031H12.0547" stroke="#404145" stroke-width="1.5" stroke-miterlimit="10" stroke-linejoin="round"/>
<path d="M1 23.5317H25.6573" stroke="#404145" stroke-width="1.5" stroke-miterlimit="10" stroke-linecap="round" stroke-linejoin="round"/>
<path d="M15.5391 37.3059L17.6647 29.3135H21.4908L23.6165 37.3059" stroke="#404145" stroke-width="1.5" stroke-miterlimit="10" stroke-linecap="round" stroke-linejoin="round"/>
<path d="M13.3281 37.3057H26.422" stroke="#404145" stroke-width="1.5" stroke-miterlimit="10" stroke-linecap="round" stroke-linejoin="round"/>
<path d="M40.9602 38.1557H32.0325C31.0973 38.1557 30.332 37.3905 30.332 36.4552V17.3245C30.332 16.3893 31.0973 15.624 32.0325 15.624H40.9602C41.8955 15.624 42.6607 16.3893 42.6607 17.3245V36.4552C42.6607 37.3905 41.8955 38.1557 40.9602 38.1557Z" fill="white" stroke="#404145" stroke-width="1.5" stroke-miterlimit="10" stroke-linecap="round" stroke-linejoin="round"/>
<path d="M19.9596 27.3577C20.4292 27.3577 20.8099 26.9771 20.8099 26.5075C20.8099 26.0379 20.4292 25.6572 19.9596 25.6572C19.49 25.6572 19.1094 26.0379 19.1094 26.5075C19.1094 26.9771 19.49 27.3577 19.9596 27.3577Z" fill="#404145"/>
<path d="M36.1159 35.8604C36.5855 35.8604 36.9661 35.4797 36.9661 35.0102C36.9661 34.5406 36.5855 34.1599 36.1159 34.1599C35.6463 34.1599 35.2656 34.5406 35.2656 35.0102C35.2656 35.4797 35.6463 35.8604 36.1159 35.8604Z" fill="#404145"/>
</svg>
