<svg width="46" height="48" viewBox="0 0 46 48" fill="none" xmlns="http://www.w3.org/2000/svg">
<path d="M10 35H3C1.89543 35 1 34.1046 1 33V3C1 1.89543 1.89543 1 3 1H43C44.1046 1 45 1.89543 45 3V33C45 34.1046 44.1046 35 43 35H36" fill="white"/>
<path d="M10 35H3C1.89543 35 1 34.1046 1 33V3C1 1.89543 1.89543 1 3 1H43C44.1046 1 45 1.89543 45 3V33C45 34.1046 44.1046 35 43 35H36" stroke="#404145" stroke-width="1.5" stroke-miterlimit="10"/>
<rect x="6" y="8" width="34" height="9" rx="2" fill="#A6EACA" stroke="#404145" stroke-width="1.5" stroke-miterlimit="10"/>
<path d="M14.81 21.02C14.3 20.13 14 19.1 14 18C14 14.69 16.69 12 20 12C23.31 12 26 14.69 26 18C26 19.14 25.68 20.21 25.13 21.12" fill="white"/>
<path d="M14.81 21.02C14.3 20.13 14 19.1 14 18C14 14.69 16.69 12 20 12C23.31 12 26 14.69 26 18C26 19.14 25.68 20.21 25.13 21.12" stroke="#404145" stroke-width="1.5" stroke-miterlimit="10"/>
<path d="M17 45C17 45 17 43.86 17 43C17 42.14 14.17 39.69 13.47 38.59C13.04 37.91 10 29.23 10 29.23C10 28.26 12.45 27.03 14.05 29.23L16.66 33.28L18 32V18C18 16.9 18.9 16 20 16C21.1 16 22 16.9 22 18V30V29V24H24C24.63 24 25.62 24.4 26 25H28C28.94 25 30 25.88 30 27H32C32.94 27 34 27.88 34 29V39C34 41.02 32 42.65 32 44C32 45.35 32 45 32 45" fill="white"/>
<path d="M17 45C17 45 17 43.86 17 43C17 42.14 14.17 39.69 13.47 38.59C13.04 37.91 10 29.23 10 29.23C10 28.26 12.45 27.03 14.05 29.23L16.66 33.28L18 32V18C18 16.9 18.9 16 20 16C21.1 16 22 16.9 22 18V30V29V24H24C24.63 24 25.62 24.4 26 25H28C28.94 25 30 25.88 30 27H32C32.94 27 34 27.88 34 29V39C34 41.02 32 42.65 32 44C32 45.35 32 45 32 45" stroke="#404145" stroke-width="1.5" stroke-miterlimit="10"/>
<path d="M26 25V30" stroke="#404145" stroke-width="1.5" stroke-miterlimit="10"/>
<path d="M30 27V31" stroke="#404145" stroke-width="1.5" stroke-miterlimit="10"/>
<path d="M34 48V45H15V48" fill="#A6EACA"/>
<path d="M34 48V45H15V48" stroke="#404145" stroke-width="1.5" stroke-miterlimit="10"/>
<path d="M4 4H6" stroke="#404145" stroke-width="1.5" stroke-miterlimit="10"/>
<path d="M7 4H9" stroke="#404145" stroke-width="1.5" stroke-miterlimit="10"/>
</svg>
