<?xml version="1.0" encoding="UTF-8"?>
<svg width="60px" height="60px" viewBox="0 0 60 60" version="1.1" xmlns="http://www.w3.org/2000/svg" xmlns:xlink="http://www.w3.org/1999/xlink">
    <!-- Generator: Sketch 61 (89581) - https://sketch.com -->
    <title>process (1)</title>
    <desc>Created with Sketch.</desc>
    <g id="Page-1" stroke="none" stroke-width="1" fill="none" fill-rule="evenodd">
        <g id="Homepage" transform="translate(-827.000000, -928.000000)" fill="#535251" fill-rule="nonzero">
            <g id="process-(1)" transform="translate(827.000000, 928.000000)">
                <path d="M30,0 C13.458,0 0,13.458 0,30 C0,46.542 13.458,60 30,60 C46.542,60 60,46.542 60,30 C60,13.458 46.542,0 30,0 Z M30,57.5 C14.836375,57.5 2.5,45.163625 2.5,30 C2.5,14.836375 14.836375,2.5 30,2.5 C45.163625,2.5 57.5,14.836375 57.5,30 C57.5,45.163625 45.163625,57.5 30,57.5 Z" id="Shape"></path>
                <path d="M51.25,24.374875 L47.86775,24.374875 C47.537375,23.319875 47.11775,22.304875 46.614,21.341 L49.00875,18.94625 C49.48075,18.474375 49.7405,17.8475 49.7405,17.181125 C49.7405,16.514625 49.4805,15.88775 49.00875,15.416 L44.583875,10.991125 C44.112,10.51925 43.485125,10.259375 42.818625,10.259375 C42.15225,10.259375 41.525375,10.51925 41.0535,10.991125 L38.65875,13.385875 C37.694875,12.882125 36.67975,12.462625 35.624875,12.132125 L35.624875,8.75 C35.624875,7.3715 34.503375,6.25 33.124875,6.25 L26.874875,6.25 C25.496375,6.25 24.374875,7.3715 24.374875,8.75 L24.374875,12.13225 C23.319875,12.462625 22.304875,12.88225 21.341,13.386 L18.94625,10.99125 C18.474375,10.51925 17.8475,10.2595 17.181125,10.2595 C16.514625,10.2595 15.88775,10.5195 15.416,10.99125 L10.991125,15.416125 C10.51925,15.888 10.259375,16.514875 10.259375,17.181375 C10.259375,17.84775 10.51925,18.474625 10.991125,18.9465 L13.385875,21.34125 C12.882125,22.305125 12.462625,23.32025 12.132125,24.375125 L8.75,24.375125 C7.3715,24.375125 6.25,25.496625 6.25,26.875125 L6.25,33.125125 C6.25,34.503625 7.3715,35.625125 8.75,35.625125 L12.132125,35.625125 C12.4625,36.680125 12.882125,37.695125 13.385875,38.659 L10.991125,41.05375 C10.519125,41.525625 10.259375,42.1525 10.259375,42.818875 C10.259375,43.485375 10.519375,44.11225 10.991125,44.584 L15.416,49.008875 C15.887875,49.48075 16.51475,49.740625 17.18125,49.740625 C17.847625,49.740625 18.4745,49.48075 18.946375,49.008875 L21.341125,46.614125 C22.305,47.117875 23.320125,47.537375 24.375,47.867875 L24.375,51.25 C24.375,52.6285 25.4965,53.75 26.875,53.75 L33.125,53.75 C34.5035,53.75 35.625,52.6285 35.625125,51.25 L35.625125,47.86775 C36.680125,47.537375 37.695125,47.11775 38.659,46.614 L41.05375,49.00875 C41.525625,49.48075 42.1525,49.7405 42.818875,49.7405 C43.485375,49.7405 44.11225,49.4805 44.584,49.00875 L49.008875,44.583875 C49.48075,44.112 49.740625,43.485125 49.740625,42.818625 C49.740625,42.15225 49.48075,41.525375 49.008875,41.0535 L46.614125,38.65875 C47.117875,37.694875 47.537375,36.67975 47.867875,35.624875 L51.25,35.624875 C52.6285,35.624875 53.75,34.503375 53.75,33.124875 L53.75,26.874875 C53.75,25.496375 52.6285,24.374875 51.25,24.374875 Z M51.25,33.12475 L46.92525,33.12475 C46.355,33.12475 45.85725,33.5105 45.71475,34.062625 C45.331125,35.55025 44.75025,36.95425 43.988125,38.236 C43.696,38.727375 43.774375,39.3545 44.178625,39.75875 L47.241125,42.815875 L42.8215,47.240875 L39.759,44.178375 C39.3545,43.774 38.727375,43.695875 38.23625,43.987875 C36.9545,44.75 35.550375,45.331 34.062875,45.7145 C33.51075,45.857 33.125,46.35475 33.125,46.925 L33.125,51.25 L26.875,51.25 L26.875,46.925125 C26.875,46.354875 26.48925,45.857125 25.937125,45.714625 C24.4495,45.331 23.0455,44.750125 21.76375,43.988 C21.565375,43.87 21.344625,43.8125 21.125375,43.8125 C20.802125,43.8125 20.482,43.93775 20.24125,44.178875 L17.184125,47.241375 L12.759125,42.82175 L15.821625,39.75925 C16.225875,39.354875 16.30425,38.727875 16.012125,38.2365 C15.25,36.95475 14.669,35.550625 14.2855,34.063125 C14.143,33.511 13.64525,33.12525 13.075,33.12525 L8.75,33.12525 L8.75,26.87525 L13.0745,26.87525 C13.64475,26.87525 14.1425,26.4895 14.285,25.937375 C14.668625,24.44975 15.2495,23.04575 16.011625,21.764 C16.30375,21.272625 16.225375,20.6455 15.821125,20.24125 L12.758625,17.184125 L17.17825,12.759125 L20.24075,15.821625 C20.64525,16.226 21.272375,16.30425 21.7635,16.012125 C23.04525,15.25 24.449375,14.669 25.936875,14.2855 C26.489,14.143 26.87475,13.64525 26.87475,13.075 L26.87475,8.75 L33.12475,8.75 L33.12475,13.0745 C33.12475,13.64475 33.5105,14.1425 34.062625,14.285 C35.55025,14.668625 36.95425,15.2495 38.236,16.011625 C38.727125,16.30375 39.354375,16.22525 39.75875,15.821125 L42.815875,12.758625 L47.240875,17.17825 L44.178375,20.24075 C43.774125,20.645125 43.69575,21.272125 43.987875,21.7635 C44.75,23.04525 45.331,24.449375 45.7145,25.936875 C45.857,26.489 46.35475,26.87475 46.925,26.87475 L51.25,26.87475 L51.25,33.12475 Z" id="Shape"></path>
                <path d="M41.448125,36.559375 L36.448125,32.184375 L34.801875,34.06575 L37.29825,36.25 L30,36.25 C26.55375,36.25 23.75,33.44625 23.75,30 L21.25,30 C21.25,34.82475 25.17525,38.75 30,38.75 L37.29825,38.75 L34.801875,40.934375 L36.448125,42.81575 L41.448125,38.44075 C41.719375,38.2035 41.875,37.8605 41.875,37.500125 C41.875,37.13975 41.719375,36.796625 41.448125,36.559375 Z" id="Path"></path>
                <path d="M25.198125,25.934125 L22.70175,23.75 L30,23.75 C33.44625,23.75 36.25,26.55375 36.25,30 L38.75,30 C38.75,25.17525 34.82475,21.25 30,21.25 L22.70175,21.25 L25.198125,19.065625 L23.551875,17.18425 L18.551875,21.55925 C18.280625,21.7965 18.125,22.1395 18.125,22.499875 C18.125,22.86025 18.280625,23.20325 18.551875,23.4405 L23.551875,27.8155 L25.198125,25.934125 Z" id="Path"></path>
            </g>
        </g>
    </g>
</svg>