<?xml version="1.0" encoding="UTF-8"?>
<svg width="55px" height="55px" viewBox="0 0 55 55" version="1.1" xmlns="http://www.w3.org/2000/svg" xmlns:xlink="http://www.w3.org/1999/xlink">
    <!-- Generator: Sketch 61 (89581) - https://sketch.com -->
    <title>profit (1)</title>
    <desc>Created with Sketch.</desc>
    <g id="Page-1" stroke="none" stroke-width="1" fill="none" fill-rule="evenodd">
        <g id="Homepage" transform="translate(-554.000000, -930.000000)" fill="#535251" fill-rule="nonzero">
            <g id="profit-(1)" transform="translate(554.000000, 930.000000)">
                <path d="M53.9257813,11.6374414 L53.9257813,11.6374414 C54.5189648,11.637334 55,11.1564063 55,10.5631152 L55,4.51171875 C55,2.02393555 52.9760645,0 50.4882813,0 C50.2921289,0 50.0993066,0.0139648438 49.909707,0.0383496094 C49.8201172,0.0140722656 49.7262305,0 49.6289063,0 L11.3867188,0 C8.89893555,0 6.875,2.02393555 6.875,4.51171875 L6.875,15.720332 C4.33876953,16.0138086 2.36295898,18.1735254 2.36295898,20.7870996 L2.36295898,46.8359375 L1.07421875,46.8359375 C0.481035156,46.8359375 0,47.3168652 0,47.9101563 L0,49.8709277 C0,52.6991309 2.30086914,55 5.12896484,55 L49.8710352,55 C52.6991309,55 55,52.6991309 55,49.8709277 L55,47.9101563 C55,47.3168652 54.5189648,46.8359375 53.9257813,46.8359375 L52.6363965,46.8359375 L52.6363965,20.7870996 C52.6363965,18.1737402 50.6609082,16.0142383 48.125,15.7204395 L48.125,11.6374414 L53.9257813,11.6374414 Z M48.125,4.51171875 C48.125,3.20858398 49.1851465,2.1484375 50.4882813,2.1484375 C51.791416,2.1484375 52.8515625,3.20858398 52.8515625,4.51171875 L52.8515625,9.48889648 L48.125,9.48889648 L48.125,4.51171875 Z M9.0234375,4.51171875 C9.0234375,3.20858398 10.083584,2.1484375 11.3867188,2.1484375 L46.6470898,2.1484375 C46.2223438,2.83625977 45.9765625,3.64568359 45.9765625,4.51171875 L45.9765625,46.8359375 L45.3320313,46.8359375 L37.5976563,46.8359375 L37.5976563,29.9128027 L41.4648438,26.0456152 L41.4648438,38.8062598 C41.4648438,39.3995508 41.9458789,39.8804785 42.5390625,39.8804785 C43.1322461,39.8804785 43.6132813,39.3995508 43.6132813,38.8062598 L43.6132813,23.4521289 C43.6132813,23.0177148 43.3514941,22.6259473 42.950166,22.4596582 C42.5488379,22.2932617 42.086709,22.3853223 41.7794824,22.6924414 L30.2978027,34.1743359 L25.3103125,29.1868457 C24.9389551,28.8155957 24.3539355,28.767041 23.9265039,29.0721191 L11.8904199,37.6649023 C11.6080078,37.8665332 11.4404297,38.1921289 11.4404297,38.539209 L11.4404297,46.8359375 L9.0234375,46.8359375 L9.0234375,4.51171875 Z M31.5766602,35.9337988 L35.4492188,32.0612402 L35.4492188,46.8359375 L31.5820312,46.8359375 L31.5820312,36.0400391 C31.5820312,36.0041602 31.5800977,35.9688184 31.5766602,35.9337988 Z M29.4335938,36.3485547 L29.4335938,46.8359375 L25.5664062,46.8359375 L25.5664062,32.4812598 L29.4335938,36.3485547 Z M23.4179688,32.0749902 L23.4179688,46.8359375 L19.5507812,46.8359375 L19.5507812,34.8358398 L23.4179688,32.0749902 Z M17.4023438,36.3697168 L17.4023438,46.8359375 L13.5888672,46.8359375 L13.5888672,39.0922168 L17.4023438,36.3697168 Z M4.51139648,20.7870996 C4.51139648,19.3604297 5.52814453,18.1669727 6.875,17.892832 L6.875,46.8359375 L4.51139648,46.8359375 L4.51139648,20.7870996 Z M52.8515625,48.984375 L52.8515625,49.8709277 C52.8515625,51.5144824 51.5144824,52.8515625 49.8710352,52.8515625 L5.12896484,52.8515625 C3.48551758,52.8515625 2.1484375,51.5144824 2.1484375,49.8709277 L2.1484375,48.984375 L52.8515625,48.984375 Z M50.487959,20.7870996 L50.487959,46.8359375 L48.125,46.8359375 L48.125,17.8929395 C49.4715332,18.1672949 50.487959,19.360752 50.487959,20.7870996 Z" id="Shape"></path>
                <path d="M43.2984277,42.3886719 C43.0987305,42.187793 42.821582,42.0739258 42.5390625,42.0739258 C42.256543,42.0739258 41.9793945,42.187793 41.7795898,42.3886719 C41.5797852,42.5884766 41.4648438,42.865625 41.4648438,43.1481445 C41.4648438,43.4306641 41.5796777,43.7078125 41.7795898,43.9076172 C41.979502,44.1074219 42.256543,44.2223633 42.5390625,44.2223633 C42.821582,44.2223633 43.0987305,44.1074219 43.2984277,43.9076172 C43.4982324,43.7078125 43.6132812,43.4306641 43.6132812,43.1481445 C43.6132812,42.8645508 43.4983398,42.5884766 43.2984277,42.3886719 Z" id="Path"></path>
                <path d="M42.6445508,12.723584 L38.2197363,12.723584 C37.6265527,12.723584 37.1455176,13.2045117 37.1455176,13.7978027 C37.1455176,14.3910937 37.6265527,14.8720215 38.2197363,14.8720215 L40.0511719,14.8720215 L29.7960352,25.1271582 L25.1110449,20.442168 C24.7392578,20.0705957 24.1532715,20.0224707 23.7259473,20.3284082 L15.3907617,26.2975195 C14.9084375,26.6429883 14.7974707,27.3139453 15.142832,27.796377 C15.352627,28.0893164 15.6824121,28.245293 16.0171387,28.245293 C16.2335937,28.245293 16.4521973,28.1799805 16.641582,28.0443066 L24.2359863,22.6056445 L29.0363477,27.4060059 C29.4559375,27.8254883 30.135918,27.8253809 30.5556152,27.4060059 L41.570332,16.3912891 L41.570332,18.2227246 C41.570332,18.8160156 42.0513672,19.2969434 42.6445508,19.2969434 C43.2377344,19.2969434 43.7187695,18.8160156 43.7187695,18.2227246 L43.7187695,13.7978027 C43.7187695,13.2045117 43.2377344,12.723584 42.6445508,12.723584 Z" id="Path"></path>
                <path d="M12.9808594,29.1285156 C12.7810547,28.9287109 12.5039062,28.8148438 12.2213867,28.8148438 C11.9388672,28.8148438 11.6617188,28.9287109 11.4620215,29.1285156 C11.2622168,29.3283203 11.147168,29.6054688 11.147168,29.8879883 C11.147168,30.171582 11.2621094,30.4476563 11.4620215,30.6485352 C11.6617188,30.8483398 11.9388672,30.9632813 12.2213867,30.9632813 C12.5039062,30.9632813 12.7810547,30.8483398 12.9808594,30.6485352 C13.1806641,30.4476563 13.2956055,30.171582 13.2956055,29.8879883 C13.2956055,29.6054688 13.1807715,29.3283203 12.9808594,29.1285156 Z" id="Path"></path>
                <path d="M19.1894141,11.338916 C18.3852539,11.338916 17.7309473,10.789668 17.7309473,10.1145215 C17.7309473,9.439375 18.3852539,8.89012695 19.1894141,8.89012695 C19.9936816,8.89012695 20.6479883,9.439375 20.6479883,10.1145215 C20.6479883,10.7078125 21.1290234,11.1887402 21.722207,11.1887402 C22.3153906,11.1887402 22.7964258,10.7078125 22.7964258,10.1145215 C22.7964258,8.60438477 21.7295117,7.32294922 20.2636328,6.89444336 L20.2636328,6.85974609 C20.2636328,6.26645508 19.7825977,5.78552734 19.1894141,5.78552734 C18.5962305,5.78552734 18.1151953,6.26645508 18.1151953,6.85974609 L18.1151953,6.89444336 C16.6493164,7.32294922 15.5825098,8.60438477 15.5825098,10.1145215 C15.5825098,11.9743164 17.2006055,13.4873535 19.1894141,13.4873535 C19.9936816,13.4873535 20.6479883,14.0366016 20.6479883,14.711748 C20.6479883,15.3868945 19.9936816,15.93625 19.1894141,15.93625 C18.3852539,15.93625 17.7309473,15.387002 17.7309473,14.7118555 C17.7309473,14.1185645 17.2499121,13.6376367 16.6567285,13.6376367 C16.0635449,13.6376367 15.5825098,14.1185645 15.5825098,14.7118555 C15.5825098,16.2219922 16.6493164,17.5034277 18.1151953,17.9319336 L18.1151953,17.9394531 C18.1151953,18.5327441 18.5962305,19.0136719 19.1894141,19.0136719 C19.7825977,19.0136719 20.2636328,18.5327441 20.2636328,17.9394531 L20.2636328,17.9318262 C21.7295117,17.5033203 22.7964258,16.2218848 22.7964258,14.711748 C22.7964258,12.8519531 21.1783301,11.338916 19.1894141,11.338916 Z" id="Path"></path>
                <path d="M29.8990527,49.84375 L25.1546582,49.84375 C24.5614746,49.84375 24.0804395,50.3246777 24.0804395,50.9179688 C24.0804395,51.5112598 24.5614746,51.9921875 25.1546582,51.9921875 L29.8990527,51.9921875 C30.4922363,51.9921875 30.9732715,51.5112598 30.9732715,50.9179688 C30.9732715,50.3246777 30.4922363,49.84375 29.8990527,49.84375 Z" id="Path"></path>
            </g>
        </g>
    </g>
</svg>