<?xml version="1.0" encoding="UTF-8"?>
<svg width="59px" height="63px" viewBox="0 0 59 63" version="1.1" xmlns="http://www.w3.org/2000/svg" xmlns:xlink="http://www.w3.org/1999/xlink">
    <!-- Generator: Sketch 61 (89581) - https://sketch.com -->
    <title>Group 22</title>
    <desc>Created with Sketch.</desc>
    <defs>
        <polygon id="path-1" points="0 0.0725666342 12.5710144 0.0725666342 12.5710144 2.92377889 0 2.92377889"></polygon>
        <polygon id="path-3" points="0.0190668726 0.0722898939 12.5948767 0.0722898939 12.5948767 2.92367138 0.0190668726 2.92367138"></polygon>
        <polygon id="path-5" points="0.132755288 0.153225806 2.98082937 0.153225806 2.98082937 12.7013564 0.132755288 12.7013564"></polygon>
    </defs>
    <g id="Page-1" stroke="none" stroke-width="1" fill="none" fill-rule="evenodd">
        <g id="Homepage" transform="translate(-274.000000, -926.000000)">
            <g id="Group-22" transform="translate(274.000000, 926.000000)">
                <path d="M29.2805266,16.003463 C35.086741,16.215038 39.4235531,18.6868121 42.0468928,23.6830171 C44.620185,28.5836338 44.2643975,33.502277 41.3357922,38.2105313 C41.0030123,38.7458729 40.6270636,39.2601044 40.2243121,39.7453985 C38.700593,41.5805503 37.8474146,43.6426945 38.0051471,46.0644213 C38.0103653,46.1429317 38.0087049,46.2228653 38.0008776,46.3013757 C37.9100332,47.2207306 37.4548624,47.791888 36.4802419,47.7442125 C35.5637334,47.6996205 35.2029649,47.1246679 35.1560009,46.2482448 C34.9899668,43.1393738 35.9479839,40.4228178 37.9216556,38.0333491 C39.3803843,36.2672201 40.3739801,34.2895161 40.7198055,31.9880455 C41.6187619,26.0032258 37.6365512,20.326518 31.6273008,19.0869545 C25.8379269,17.8929317 19.8663899,21.5860057 18.3780123,27.3504744 C17.3322343,31.400759 18.2373577,35.0404649 21.0736954,38.1120968 C23.2919118,40.5143738 23.6711812,43.4318311 23.660982,46.4780835 C23.6583729,47.2947343 23.1009725,47.7643738 22.2468454,47.7506836 C21.3882116,47.736148 20.9539137,47.2408918 20.8689991,46.4228178 C20.8123102,45.8732448 20.8080408,45.3186907 20.7622628,44.7679317 C20.6045304,42.8758539 19.9856973,41.247296 18.7022533,39.737334 C14.7838472,35.1277514 13.9569972,29.8787002 16.454388,24.3777514 C18.9403937,18.9012334 23.4674336,16.2610531 29.2805266,16.003463" id="Fill-1" fill="#535251"></path>
                <path d="M29.3601992,53.2146347 C27.3858159,53.2141603 25.4111954,53.2023008 23.436575,53.2193786 C22.4629032,53.2276803 21.8137097,52.8503083 21.7347249,51.8306214 C21.6664137,50.9489801 22.3668406,50.3752135 23.4878083,50.3723672 C27.3976755,50.3624051 31.3073055,50.3806689 35.2166983,50.3600332 C36.2273719,50.3545778 36.9394213,50.6833254 37.0385674,51.7630218 C37.122296,52.671703 36.4083491,53.2053843 35.1657021,53.2122628 C33.2304554,53.2226992 31.2954459,53.2148719 29.3601992,53.2146347" id="Fill-3" fill="#535251"></path>
                <g id="Group-7" transform="translate(0.000000, 31.630455)">
                    <mask id="mask-2" fill="white">
                        <use xlink:href="#path-1"></use>
                    </mask>
                    <g id="Clip-6"></g>
                    <path d="M6.30652277,0.0790796964 C7.84708254,0.0790796964 9.3881167,0.094971537 10.9286765,0.0729127135 C11.8622628,0.0593927894 12.5154886,0.441034156 12.5676708,1.38766603 C12.6238852,2.39928843 11.9659156,2.90118596 10.998648,2.90735294 C7.83854364,2.92751423 4.6779649,2.93249526 1.51809772,2.9028463 C0.622699241,2.89454459 -0.0260199241,2.44079696 0.000782732448,1.45597723 C0.0271110057,0.492979127 0.624596774,0.0722011385 1.56577324,0.0771821632 C3.14594402,0.0852466793 4.7261148,0.079316888 6.30652277,0.0790796964" id="Fill-5" fill="#535251" mask="url(#mask-2)"></path>
                </g>
                <g id="Group-10" transform="translate(46.015180, 31.630455)">
                    <mask id="mask-4" fill="white">
                        <use xlink:href="#path-3"></use>
                    </mask>
                    <g id="Clip-9"></g>
                    <path d="M6.30604839,0.0788425047 C7.84684535,0.0788425047 9.38764231,0.0944971537 10.9279649,0.0733870968 C11.9180028,0.059629981 12.5856973,0.479696395 12.5950297,1.48467742 C12.6034867,2.42822581 11.9431452,2.90071157 11.0342268,2.90664137 C7.8738852,2.92703985 4.71354364,2.93083491 1.55343928,2.9085389 C0.647841556,2.90213472 0.00552656546,2.43842505 0.0192836812,1.47163188 C0.0342267552,0.436527514 0.700498102,0.0584440228 1.68413188,0.0726755218 C3.22445446,0.0952087287 4.76548861,0.0786053131 6.30604839,0.0788425047" id="Fill-8" fill="#535251" mask="url(#mask-4)"></path>
                </g>
                <g id="Group-13" transform="translate(27.514231, 0.083966)">
                    <mask id="mask-6" fill="white">
                        <use xlink:href="#path-5"></use>
                    </mask>
                    <g id="Clip-12"></g>
                    <path d="M0.134440228,6.48382353 C0.134440228,4.90388994 0.137049336,3.32371917 0.133491461,1.74378558 C0.131119545,0.749952562 0.579174573,0.140132827 1.6097723,0.15341556 C2.60597723,0.165986717 2.97362429,0.82300759 2.97575901,1.72931689 C2.98240038,4.84981025 2.98263757,7.9705408 2.97575901,11.090797 C2.97386148,12.0635199 2.52319734,12.7338235 1.50279886,12.7001423 C0.564231499,12.6690702 0.12898482,12.0409867 0.132755288,11.1055028 C0.139184061,9.56494307 0.134440228,8.0243833 0.134440228,6.48382353" id="Fill-11" fill="#535251" mask="url(#mask-6)"></path>
                </g>
                <path d="M16.1641129,18.4973197 C15.8560009,18.8678131 15.6107448,19.4311433 15.2208017,19.5613615 C14.7732211,19.7107922 14.0123102,19.6702324 13.7065702,19.3782495 C11.3057163,17.0857922 8.96558349,14.7285816 6.64466319,12.3545304 C6.06899905,11.7655835 6.12189279,11.0310009 6.70633302,10.4401565 C7.29290797,9.84717742 8.03887571,9.79309772 8.62189279,10.3609345 C11.0006879,12.6768738 13.3393975,15.034796 15.6686195,17.4010199 C15.8953748,17.6310958 15.9572818,18.0234108 16.1641129,18.4973197" id="Fill-14" fill="#535251"></path>
                <path d="M52.7446632,11.3258776 C52.4031072,11.8491224 52.209796,12.2836575 51.8976518,12.6005455 C49.7624526,14.76824 47.5964184,16.9053368 45.4538662,19.0654412 C44.7738378,19.7511622 44.0494545,19.9681926 43.2612666,19.3159156 C42.5610769,18.7364564 42.6315228,17.8631167 43.4339421,17.0533444 C45.6035342,14.8640655 47.7610294,12.6612666 49.9965607,10.5410104 C50.3722723,10.1845114 51.1521584,10.0215607 51.6730313,10.1266366 C52.0681926,10.2065702 52.3490275,10.8545778 52.7446632,11.3258776" id="Fill-16" fill="#535251"></path>
                <path d="M29.2768264,58.0380455 C27.9736954,58.0380455 26.6705645,58.0342505 25.3674336,58.0394934 C24.4407258,58.0430266 23.8199953,57.6620968 23.7948529,56.6768027 C23.7694734,55.6943548 24.3864089,55.2266129 25.2917694,55.2164137 C28.0161528,55.1860531 30.7412476,55.1843928 33.4651565,55.2149905 C34.3607922,55.2249526 35.0004981,55.6737192 34.9815228,56.661148 C34.9627846,57.6402751 34.3558112,58.0416034 33.4231736,58.0389943 C32.0410579,58.0351992 30.6589421,58.0380455 29.2768264,58.0380455" id="Fill-18" fill="#535251"></path>
                <path d="M29.4308586,62.6998577 C28.6820446,62.6996205 27.9332306,62.7074478 27.1844165,62.6974858 C26.3720351,62.6868121 25.8210389,62.1858634 25.9244545,61.4621917 C26.0010674,60.9254269 26.539018,60.0705882 26.9375,60.0312144 C28.5689042,59.8703985 30.2299573,59.9017078 31.8717979,60.0003795 C32.6483634,60.0471063 32.9605076,60.7280835 32.8848435,61.4837761 C32.8072818,62.2553605 32.3661053,62.6951139 31.5591793,62.6993833 C30.8495019,62.7031784 30.1402989,62.7000949 29.4308586,62.6998577" id="Fill-20" fill="#535251"></path>
            </g>
        </g>
    </g>
</svg>