<?xml version="1.0" encoding="UTF-8"?>
<svg width="60px" height="60px" viewBox="0 0 60 60" version="1.1" xmlns="http://www.w3.org/2000/svg" xmlns:xlink="http://www.w3.org/1999/xlink">
    <!-- Generator: Sketch 61 (89581) - https://sketch.com -->
    <title>testing</title>
    <desc>Created with Sketch.</desc>
    <g id="Page-1" stroke="none" stroke-width="1" fill="none" fill-rule="evenodd">
        <g id="Homepage" transform="translate(-1104.000000, -928.000000)" fill="#535251" fill-rule="nonzero">
            <g id="testing" transform="translate(1104.000000, 928.000000)">
                <path d="M58,20 C58,18.3431458 56.6568542,17 55,17 L51,17 L51,7 C51,5.34314575 49.6568542,4 48,4 L33,4 L33,3 C33,1.34314575 31.6568542,0 30,0 C28.3431458,0 27,1.34314575 27,3 L27,4 L12,4 C10.3431458,4 9,5.34314575 9,7 L9,17 L5,17 C3.34314575,17 2,18.3431458 2,20 L2,54 L0,54 L0,57 C0,58.6568542 1.34314575,60 3,60 L57,60 C58.6568542,60 60,58.6568542 60,57 L60,54 L58,54 L58,20 Z M29,3 C29,2.44771525 29.4477153,2 30,2 C30.5522847,2 31,2.44771525 31,3 L31,4 L29,4 L29,3 Z M40,6 L40,8 L20,8 L20,6 L40,6 Z M20,10 L40,10 L40,12 L20,12 L20,10 Z M42,14 L42,10 L45,10 L45,46 L15,46 L15,10 L18,10 L18,14 L42,14 Z M11,7 C11,6.44771525 11.4477153,6 12,6 L18,6 L18,8 L13,8 L13,48 L47,48 L47,8 L42,8 L42,6 L48,6 C48.5522847,6 49,6.44771525 49,7 L49,49 C49,49.5522847 48.5522847,50 48,50 L12,50 C11.4477153,50 11,49.5522847 11,49 L11,7 Z M4,20 C4,19.4477153 4.44771525,19 5,19 L9,19 L9,49 C9,50.6568542 10.3431458,52 12,52 L48,52 C49.6568542,52 51,50.6568542 51,49 L51,19 L55,19 C55.5522847,19 56,19.4477153 56,20 L56,54 L4,54 L4,20 Z M58,57 C58,57.5522847 57.5522847,58 57,58 L3,58 C2.44771525,58 2,57.5522847 2,57 L2,56 L58,56 L58,57 Z" id="Shape"></path>
                <polygon id="Path" points="20 22.414 24.707 17.707 23.293 16.293 20 19.586 18.707 18.293 17.293 19.707"></polygon>
                <rect id="Rectangle" x="27" y="18" width="16" height="2"></rect>
                <polygon id="Path" points="20 26.586 18.707 25.293 17.293 26.707 20 29.414 24.707 24.707 23.293 23.293"></polygon>
                <rect id="Rectangle" x="27" y="25" width="16" height="2"></rect>
                <rect id="Rectangle" x="27" y="32" width="16" height="2"></rect>
                <rect id="Rectangle" x="27" y="39" width="16" height="2"></rect>
                <polygon id="Path" points="19.707 35.707 21 34.414 22.293 35.707 23.707 34.293 22.414 33 23.707 31.707 22.293 30.293 21 31.586 19.707 30.293 18.293 31.707 19.586 33 18.293 34.293"></polygon>
                <polygon id="Path" points="20 40.586 18.707 39.293 17.293 40.707 20 43.414 24.707 38.707 23.293 37.293"></polygon>
            </g>
        </g>
    </g>
</svg>